<mxfile host="app.diagrams.net" modified="2024-02-29T22:10:35.211Z" agent="Mozilla/5.0 (Macintosh; Intel Mac OS X 10.15; rv:123.0) Gecko/20100101 Firefox/123.0" etag="QNQCJ8yL1zaN-19rJWfY" version="23.1.5" type="device">
  <diagram name="Page-1" id="13e1069c-82ec-6db2-03f1-153e76fe0fe0">
    <mxGraphModel dx="942" dy="685" grid="1" gridSize="10" guides="1" tooltips="1" connect="1" arrows="1" fold="1" page="1" pageScale="1" pageWidth="1100" pageHeight="850" background="none" math="0" shadow="0">
      <root>
        <mxCell id="0" />
        <mxCell id="1" parent="0" />
        <mxCell id="7baba1c4bc27f4b0-2" value="&lt;font style=&quot;font-size: 11px;&quot;&gt;TabViewController&lt;/font&gt;" style="shape=umlLifeline;perimeter=lifelinePerimeter;whiteSpace=wrap;html=1;container=1;collapsible=0;recursiveResize=0;outlineConnect=0;rounded=1;shadow=0;comic=0;labelBackgroundColor=none;strokeWidth=1;fontFamily=Verdana;fontSize=12;align=center;" parent="1" vertex="1">
          <mxGeometry x="240" y="80" width="100" height="580" as="geometry" />
        </mxCell>
        <mxCell id="7baba1c4bc27f4b0-10" value="" style="html=1;points=[];perimeter=orthogonalPerimeter;rounded=0;shadow=0;comic=0;labelBackgroundColor=none;strokeWidth=1;fontFamily=Verdana;fontSize=12;align=center;" parent="7baba1c4bc27f4b0-2" vertex="1">
          <mxGeometry x="45" y="100" width="10" height="230" as="geometry" />
        </mxCell>
        <mxCell id="7baba1c4bc27f4b0-3" value="&lt;font style=&quot;font-size: 11px;&quot;&gt;WebViewController&lt;/font&gt;" style="shape=umlLifeline;perimeter=lifelinePerimeter;whiteSpace=wrap;html=1;container=1;collapsible=0;recursiveResize=0;outlineConnect=0;rounded=1;shadow=0;comic=0;labelBackgroundColor=none;strokeWidth=1;fontFamily=Verdana;fontSize=12;align=center;" parent="1" vertex="1">
          <mxGeometry x="400" y="80" width="100" height="580" as="geometry" />
        </mxCell>
        <mxCell id="7baba1c4bc27f4b0-13" value="" style="html=1;points=[];perimeter=orthogonalPerimeter;rounded=0;shadow=0;comic=0;labelBackgroundColor=none;strokeWidth=1;fontFamily=Verdana;fontSize=12;align=center;" parent="7baba1c4bc27f4b0-3" vertex="1">
          <mxGeometry x="45" y="120" width="10" height="200" as="geometry" />
        </mxCell>
        <mxCell id="7rtfwmISrGgq29ugBSut-8" value="intercept XPI" style="html=1;verticalAlign=bottom;endArrow=open;dashed=1;endSize=8;labelBackgroundColor=none;fontFamily=Verdana;fontSize=11;edgeStyle=elbowEdgeStyle;elbow=horizontal;entryX=1.1;entryY=0.44;entryDx=0;entryDy=0;entryPerimeter=0;exitX=0;exitY=0.795;exitDx=0;exitDy=0;exitPerimeter=0;" parent="7baba1c4bc27f4b0-3" edge="1">
          <mxGeometry x="0.0074" relative="1" as="geometry">
            <mxPoint x="56" y="150.05" as="targetPoint" />
            <Array as="points">
              <mxPoint x="127" y="101.05000000000001" />
              <mxPoint x="157" y="101.05000000000001" />
            </Array>
            <mxPoint x="185" y="150.00000000000006" as="sourcePoint" />
            <mxPoint as="offset" />
          </mxGeometry>
        </mxCell>
        <mxCell id="7baba1c4bc27f4b0-4" value="WebKit" style="shape=umlLifeline;perimeter=lifelinePerimeter;whiteSpace=wrap;html=1;container=1;collapsible=0;recursiveResize=0;outlineConnect=0;rounded=1;shadow=0;comic=0;labelBackgroundColor=none;strokeWidth=1;fontFamily=Verdana;fontSize=12;align=center;" parent="1" vertex="1">
          <mxGeometry x="540" y="80" width="100" height="580" as="geometry" />
        </mxCell>
        <mxCell id="7baba1c4bc27f4b0-5" value="OrionJSBridge" style="shape=umlLifeline;perimeter=lifelinePerimeter;whiteSpace=wrap;html=1;container=1;collapsible=0;recursiveResize=0;outlineConnect=0;rounded=1;shadow=0;comic=0;labelBackgroundColor=none;strokeWidth=1;fontFamily=Verdana;fontSize=12;align=center;" parent="1" vertex="1">
          <mxGeometry x="823" y="80" width="100" height="580" as="geometry" />
        </mxCell>
        <mxCell id="7baba1c4bc27f4b0-19" value="" style="html=1;points=[];perimeter=orthogonalPerimeter;rounded=0;shadow=0;comic=0;labelBackgroundColor=none;strokeWidth=1;fontFamily=Verdana;fontSize=12;align=center;" parent="7baba1c4bc27f4b0-5" vertex="1">
          <mxGeometry x="45" y="470" width="10" height="80" as="geometry" />
        </mxCell>
        <mxCell id="dmh4QjFCOpg0Noggid_4-21" value="" style="html=1;points=[];perimeter=orthogonalPerimeter;rounded=0;shadow=0;comic=0;labelBackgroundColor=none;strokeWidth=1;fontFamily=Verdana;fontSize=12;align=center;" vertex="1" parent="7baba1c4bc27f4b0-5">
          <mxGeometry x="45" y="185" width="10" height="135" as="geometry" />
        </mxCell>
        <mxCell id="7baba1c4bc27f4b0-6" value="Browser Action " style="shape=umlLifeline;perimeter=lifelinePerimeter;whiteSpace=wrap;html=1;container=1;collapsible=0;recursiveResize=0;outlineConnect=0;rounded=1;shadow=0;comic=0;labelBackgroundColor=none;strokeWidth=1;fontFamily=Verdana;fontSize=10;align=center;" parent="1" vertex="1">
          <mxGeometry x="963" y="80" width="100" height="580" as="geometry" />
        </mxCell>
        <mxCell id="7rtfwmISrGgq29ugBSut-39" value="" style="html=1;points=[];perimeter=orthogonalPerimeter;rounded=0;shadow=0;comic=0;labelBackgroundColor=none;strokeWidth=1;fontFamily=Verdana;fontSize=12;align=center;" parent="7baba1c4bc27f4b0-6" vertex="1">
          <mxGeometry x="45" y="230" width="10" height="180" as="geometry" />
        </mxCell>
        <mxCell id="7baba1c4bc27f4b0-7" value="SchemeHandler" style="shape=umlLifeline;perimeter=lifelinePerimeter;whiteSpace=wrap;html=1;container=1;collapsible=0;recursiveResize=0;outlineConnect=0;rounded=1;shadow=0;comic=0;labelBackgroundColor=none;strokeWidth=1;fontFamily=Verdana;fontSize=12;align=center;" parent="1" vertex="1">
          <mxGeometry x="1103" y="80" width="100" height="580" as="geometry" />
        </mxCell>
        <mxCell id="7baba1c4bc27f4b0-8" value="&lt;font style=&quot;font-size: 11px;&quot;&gt;WindowContoller&lt;/font&gt;" style="shape=umlLifeline;perimeter=lifelinePerimeter;whiteSpace=wrap;html=1;container=1;collapsible=0;recursiveResize=0;outlineConnect=0;rounded=1;shadow=0;comic=0;labelBackgroundColor=none;strokeWidth=1;fontFamily=Verdana;fontSize=12;align=center;" parent="1" vertex="1">
          <mxGeometry x="100" y="80" width="100" height="580" as="geometry" />
        </mxCell>
        <mxCell id="7baba1c4bc27f4b0-9" value="" style="html=1;points=[];perimeter=orthogonalPerimeter;rounded=0;shadow=0;comic=0;labelBackgroundColor=none;strokeWidth=1;fontFamily=Verdana;fontSize=12;align=center;" parent="7baba1c4bc27f4b0-8" vertex="1">
          <mxGeometry x="45" y="100" width="10" height="440" as="geometry" />
        </mxCell>
        <mxCell id="7rtfwmISrGgq29ugBSut-21" value="show install prompt" style="html=1;verticalAlign=bottom;endArrow=open;dashed=1;endSize=8;labelBackgroundColor=none;fontFamily=Verdana;fontSize=12;edgeStyle=elbowEdgeStyle;elbow=horizontal;exitX=0.2;exitY=0.609;exitDx=0;exitDy=0;exitPerimeter=0;" parent="7baba1c4bc27f4b0-8" edge="1">
          <mxGeometry relative="1" as="geometry">
            <mxPoint x="60" y="309" as="targetPoint" />
            <Array as="points">
              <mxPoint x="59.5" y="324" />
              <mxPoint x="89.5" y="324" />
            </Array>
            <mxPoint x="187" y="309.06999999999994" as="sourcePoint" />
          </mxGeometry>
        </mxCell>
        <mxCell id="7baba1c4bc27f4b0-16" value="" style="html=1;points=[];perimeter=orthogonalPerimeter;rounded=0;shadow=0;comic=0;labelBackgroundColor=none;strokeWidth=1;fontFamily=Verdana;fontSize=12;align=center;" parent="1" vertex="1">
          <mxGeometry x="585" y="200" width="10" height="210" as="geometry" />
        </mxCell>
        <mxCell id="7baba1c4bc27f4b0-22" value="" style="html=1;points=[];perimeter=orthogonalPerimeter;rounded=0;shadow=0;comic=0;labelBackgroundColor=none;strokeWidth=1;fontFamily=Verdana;fontSize=12;align=center;" parent="1" vertex="1">
          <mxGeometry x="585" y="440" width="10" height="180" as="geometry" />
        </mxCell>
        <mxCell id="7baba1c4bc27f4b0-23" value="open extension popup" style="html=1;verticalAlign=bottom;endArrow=block;entryX=0;entryY=0.657;labelBackgroundColor=none;fontFamily=Verdana;fontSize=12;entryDx=0;entryDy=0;entryPerimeter=0;" parent="1" edge="1">
          <mxGeometry relative="1" as="geometry">
            <mxPoint x="155" y="440.97" as="sourcePoint" />
            <mxPoint x="1008" y="440.97" as="targetPoint" />
          </mxGeometry>
        </mxCell>
        <mxCell id="7baba1c4bc27f4b0-25" value="" style="html=1;points=[];perimeter=orthogonalPerimeter;rounded=0;shadow=0;comic=0;labelBackgroundColor=none;strokeColor=#000000;strokeWidth=1;fillColor=#FFFFFF;fontFamily=Verdana;fontSize=12;fontColor=#000000;align=center;" parent="1" vertex="1">
          <mxGeometry x="1148" y="390" width="10" height="230" as="geometry" />
        </mxCell>
        <mxCell id="7baba1c4bc27f4b0-11" value="new tab" style="html=1;verticalAlign=bottom;endArrow=block;entryX=0;entryY=0;labelBackgroundColor=none;fontFamily=Verdana;fontSize=12;edgeStyle=elbowEdgeStyle;elbow=vertical;" parent="1" source="7baba1c4bc27f4b0-9" target="7baba1c4bc27f4b0-10" edge="1">
          <mxGeometry relative="1" as="geometry">
            <mxPoint x="220" y="190" as="sourcePoint" />
          </mxGeometry>
        </mxCell>
        <mxCell id="7baba1c4bc27f4b0-14" value="load url" style="html=1;verticalAlign=bottom;endArrow=block;entryX=0;entryY=0;labelBackgroundColor=none;fontFamily=Verdana;fontSize=10;edgeStyle=elbowEdgeStyle;elbow=vertical;" parent="1" source="7baba1c4bc27f4b0-10" target="7baba1c4bc27f4b0-13" edge="1">
          <mxGeometry relative="1" as="geometry">
            <mxPoint x="370" y="200" as="sourcePoint" />
          </mxGeometry>
        </mxCell>
        <mxCell id="7rtfwmISrGgq29ugBSut-3" value="insert HistoryItem" style="html=1;verticalAlign=bottom;endArrow=open;dashed=1;endSize=8;labelBackgroundColor=none;fontFamily=Verdana;fontSize=11;edgeStyle=elbowEdgeStyle;elbow=horizontal;entryX=0.3;entryY=0.667;entryDx=0;entryDy=0;entryPerimeter=0;exitX=1.3;exitY=0.68;exitDx=0;exitDy=0;exitPerimeter=0;" parent="1" edge="1" target="dmh4QjFCOpg0Noggid_4-19" source="7baba1c4bc27f4b0-13">
          <mxGeometry relative="1" as="geometry">
            <mxPoint x="455" y="260" as="targetPoint" />
            <Array as="points">
              <mxPoint x="530" y="275" />
              <mxPoint x="560" y="275" />
            </Array>
            <mxPoint x="586" y="259.97" as="sourcePoint" />
          </mxGeometry>
        </mxCell>
        <mxCell id="7rtfwmISrGgq29ugBSut-13" value="intercept XPI" style="html=1;verticalAlign=bottom;endArrow=open;dashed=1;endSize=8;labelBackgroundColor=none;fontFamily=Verdana;fontSize=12;edgeStyle=elbowEdgeStyle;elbow=horizontal;entryX=0.9;entryY=0.861;entryDx=0;entryDy=0;entryPerimeter=0;exitX=0.1;exitY=0.64;exitDx=0;exitDy=0;exitPerimeter=0;" parent="1" edge="1">
          <mxGeometry x="0.0063" relative="1" as="geometry">
            <mxPoint x="294" y="379.03" as="targetPoint" />
            <Array as="points">
              <mxPoint x="381" y="292" />
              <mxPoint x="411" y="292" />
            </Array>
            <mxPoint x="446" y="378" as="sourcePoint" />
            <mxPoint as="offset" />
          </mxGeometry>
        </mxCell>
        <mxCell id="7rtfwmISrGgq29ugBSut-22" value="&lt;div style=&quot;font-size: 11px;&quot;&gt;enable back/forward&lt;/div&gt;&lt;div style=&quot;font-size: 11px;&quot;&gt;update URL bar&lt;br style=&quot;font-size: 11px;&quot;&gt;&lt;/div&gt;" style="html=1;verticalAlign=bottom;endArrow=open;dashed=1;endSize=8;labelBackgroundColor=none;fontFamily=Verdana;fontSize=11;edgeStyle=elbowEdgeStyle;elbow=horizontal;exitX=0.1;exitY=0.509;exitDx=0;exitDy=0;exitPerimeter=0;entryX=1.1;entryY=0.264;entryDx=0;entryDy=0;entryPerimeter=0;" parent="1" source="7baba1c4bc27f4b0-10" target="7baba1c4bc27f4b0-9" edge="1">
          <mxGeometry relative="1" as="geometry">
            <mxPoint x="70" y="270" as="targetPoint" />
            <Array as="points">
              <mxPoint x="159.5" y="275" />
              <mxPoint x="189.5" y="275" />
            </Array>
            <mxPoint x="215.5" y="260" as="sourcePoint" />
          </mxGeometry>
        </mxCell>
        <mxCell id="7rtfwmISrGgq29ugBSut-35" style="edgeStyle=orthogonalEdgeStyle;rounded=0;orthogonalLoop=1;jettySize=auto;html=1;dashed=1;endArrow=open;endFill=0;" parent="1" source="7baba1c4bc27f4b0-16" edge="1">
          <mxGeometry relative="1" as="geometry">
            <mxPoint x="460" y="305" as="targetPoint" />
          </mxGeometry>
        </mxCell>
        <mxCell id="7rtfwmISrGgq29ugBSut-36" value="didNavigateWithNavigationData" style="edgeLabel;html=1;align=center;verticalAlign=middle;resizable=0;points=[];labelBackgroundColor=default;" parent="7rtfwmISrGgq29ugBSut-35" vertex="1" connectable="0">
          <mxGeometry x="0.0233" y="2" relative="1" as="geometry">
            <mxPoint y="-12" as="offset" />
          </mxGeometry>
        </mxCell>
        <mxCell id="7rtfwmISrGgq29ugBSut-37" style="edgeStyle=orthogonalEdgeStyle;rounded=0;orthogonalLoop=1;jettySize=auto;html=1;entryX=1.5;entryY=0.448;entryDx=0;entryDy=0;entryPerimeter=0;exitX=-0.3;exitY=0.41;exitDx=0;exitDy=0;exitPerimeter=0;endArrow=open;endFill=0;dashed=1;" parent="1" edge="1">
          <mxGeometry relative="1" as="geometry">
            <mxPoint x="442" y="266" as="sourcePoint" />
            <mxPoint x="300" y="267.03999999999996" as="targetPoint" />
          </mxGeometry>
        </mxCell>
        <mxCell id="7rtfwmISrGgq29ugBSut-38" value="&lt;div&gt;webview canGoBack/&lt;/div&gt;&lt;div&gt;canGoForward/&lt;/div&gt;&lt;div&gt;url change&lt;br&gt;&lt;/div&gt;&lt;div&gt;&lt;br&gt;&lt;/div&gt;" style="edgeLabel;html=1;align=center;verticalAlign=middle;resizable=0;points=[];labelBackgroundColor=none;" parent="7rtfwmISrGgq29ugBSut-37" vertex="1" connectable="0">
          <mxGeometry x="0.0067" y="3" relative="1" as="geometry">
            <mxPoint x="-3" y="-17" as="offset" />
          </mxGeometry>
        </mxCell>
        <mxCell id="7rtfwmISrGgq29ugBSut-50" style="edgeStyle=orthogonalEdgeStyle;rounded=0;orthogonalLoop=1;jettySize=auto;html=1;endArrow=open;endFill=0;dashed=1;" parent="1" source="7rtfwmISrGgq29ugBSut-39" target="7baba1c4bc27f4b0-4" edge="1">
          <mxGeometry relative="1" as="geometry">
            <Array as="points">
              <mxPoint x="920" y="470" />
              <mxPoint x="920" y="470" />
            </Array>
            <mxPoint x="650" y="490" as="targetPoint" />
          </mxGeometry>
        </mxCell>
        <mxCell id="7rtfwmISrGgq29ugBSut-51" value="Inject OrionJSBridge" style="edgeLabel;html=1;align=center;verticalAlign=middle;resizable=0;points=[];" parent="7rtfwmISrGgq29ugBSut-50" vertex="1" connectable="0">
          <mxGeometry x="-0.1481" y="-1" relative="1" as="geometry">
            <mxPoint y="-13" as="offset" />
          </mxGeometry>
        </mxCell>
        <mxCell id="dmh4QjFCOpg0Noggid_4-7" style="edgeStyle=orthogonalEdgeStyle;rounded=0;orthogonalLoop=1;jettySize=auto;html=1;entryX=-0.4;entryY=0.304;entryDx=0;entryDy=0;entryPerimeter=0;" edge="1" parent="1" source="7rtfwmISrGgq29ugBSut-39" target="7baba1c4bc27f4b0-25">
          <mxGeometry relative="1" as="geometry">
            <Array as="points">
              <mxPoint x="1053" y="460" />
              <mxPoint x="1053" y="460" />
            </Array>
          </mxGeometry>
        </mxCell>
        <mxCell id="dmh4QjFCOpg0Noggid_4-8" value="Register extension scheme" style="edgeLabel;html=1;align=center;verticalAlign=middle;resizable=0;points=[];" vertex="1" connectable="0" parent="dmh4QjFCOpg0Noggid_4-7">
          <mxGeometry x="0.0793" y="-4" relative="1" as="geometry">
            <mxPoint y="-24" as="offset" />
          </mxGeometry>
        </mxCell>
        <mxCell id="dmh4QjFCOpg0Noggid_4-9" style="edgeStyle=orthogonalEdgeStyle;rounded=0;orthogonalLoop=1;jettySize=auto;html=1;entryX=-0.4;entryY=0.522;entryDx=0;entryDy=0;entryPerimeter=0;" edge="1" parent="1" source="7baba1c4bc27f4b0-22" target="7baba1c4bc27f4b0-25">
          <mxGeometry relative="1" as="geometry">
            <Array as="points">
              <mxPoint x="730" y="510" />
              <mxPoint x="730" y="510" />
            </Array>
          </mxGeometry>
        </mxCell>
        <mxCell id="dmh4QjFCOpg0Noggid_4-10" value="request popup" style="edgeLabel;html=1;align=center;verticalAlign=middle;resizable=0;points=[];" vertex="1" connectable="0" parent="dmh4QjFCOpg0Noggid_4-9">
          <mxGeometry x="-0.0692" y="-4" relative="1" as="geometry">
            <mxPoint x="2" y="-12" as="offset" />
          </mxGeometry>
        </mxCell>
        <mxCell id="dmh4QjFCOpg0Noggid_4-11" style="edgeStyle=orthogonalEdgeStyle;rounded=0;orthogonalLoop=1;jettySize=auto;html=1;dashed=1;endArrow=classic;endFill=0;" edge="1" parent="1">
          <mxGeometry relative="1" as="geometry">
            <mxPoint x="1148" y="535" as="sourcePoint" />
            <mxPoint x="599" y="535" as="targetPoint" />
            <Array as="points">
              <mxPoint x="599" y="535" />
            </Array>
          </mxGeometry>
        </mxCell>
        <mxCell id="dmh4QjFCOpg0Noggid_4-12" value="serve web extension" style="edgeLabel;html=1;align=center;verticalAlign=middle;resizable=0;points=[];" vertex="1" connectable="0" parent="dmh4QjFCOpg0Noggid_4-11">
          <mxGeometry x="0.1618" y="4" relative="1" as="geometry">
            <mxPoint y="-12" as="offset" />
          </mxGeometry>
        </mxCell>
        <mxCell id="dmh4QjFCOpg0Noggid_4-16" style="edgeStyle=orthogonalEdgeStyle;rounded=0;orthogonalLoop=1;jettySize=auto;html=1;entryX=-0.3;entryY=0.375;entryDx=0;entryDy=0;entryPerimeter=0;" edge="1" parent="1" source="7baba1c4bc27f4b0-22" target="7baba1c4bc27f4b0-19">
          <mxGeometry relative="1" as="geometry">
            <Array as="points">
              <mxPoint x="660" y="580" />
              <mxPoint x="660" y="580" />
            </Array>
          </mxGeometry>
        </mxCell>
        <mxCell id="dmh4QjFCOpg0Noggid_4-17" value="request Web History" style="edgeLabel;html=1;align=center;verticalAlign=middle;resizable=0;points=[];" vertex="1" connectable="0" parent="dmh4QjFCOpg0Noggid_4-16">
          <mxGeometry x="0.0948" y="-4" relative="1" as="geometry">
            <mxPoint x="-2" y="-13" as="offset" />
          </mxGeometry>
        </mxCell>
        <mxCell id="dmh4QjFCOpg0Noggid_4-18" value="Data Store" style="shape=umlLifeline;perimeter=lifelinePerimeter;whiteSpace=wrap;html=1;container=1;collapsible=0;recursiveResize=0;outlineConnect=0;rounded=1;shadow=0;comic=0;labelBackgroundColor=none;strokeWidth=1;fontFamily=Verdana;fontSize=12;align=center;" vertex="1" parent="1">
          <mxGeometry x="680" y="80" width="100" height="580" as="geometry" />
        </mxCell>
        <mxCell id="dmh4QjFCOpg0Noggid_4-19" value="" style="html=1;points=[];perimeter=orthogonalPerimeter;rounded=0;shadow=0;comic=0;labelBackgroundColor=none;strokeWidth=1;fontFamily=Verdana;fontSize=12;align=center;" vertex="1" parent="dmh4QjFCOpg0Noggid_4-18">
          <mxGeometry x="45" y="115" width="10" height="210" as="geometry" />
        </mxCell>
        <mxCell id="dmh4QjFCOpg0Noggid_4-22" style="edgeStyle=orthogonalEdgeStyle;rounded=0;orthogonalLoop=1;jettySize=auto;html=1;entryX=-0.2;entryY=0.259;entryDx=0;entryDy=0;entryPerimeter=0;" edge="1" parent="1" source="dmh4QjFCOpg0Noggid_4-19" target="dmh4QjFCOpg0Noggid_4-21">
          <mxGeometry relative="1" as="geometry" />
        </mxCell>
        <mxCell id="dmh4QjFCOpg0Noggid_4-23" value="MostVisitedURLs &lt;br&gt;/ topSites" style="edgeLabel;html=1;align=center;verticalAlign=middle;resizable=0;points=[];" vertex="1" connectable="0" parent="dmh4QjFCOpg0Noggid_4-22">
          <mxGeometry x="-0.2366" y="1" relative="1" as="geometry">
            <mxPoint x="15" y="-19" as="offset" />
          </mxGeometry>
        </mxCell>
      </root>
    </mxGraphModel>
  </diagram>
</mxfile>
